# Blender v2.77 (sub 0) OBJ File: 'Shark.blend'
# www.blender.org
mtllib Shark.mtl
o Shark_Cube
v -3.380160 -0.728050 -0.497870
v -3.380160 -0.728050 0.497870
v -4.380160 -0.495878 0.241519
v -4.380160 -0.495878 -0.241519
v -3.380160 0.267690 -0.497870
v -3.380160 0.267690 0.497870
v -4.380160 -0.012840 0.241519
v -4.380160 -0.012840 -0.241519
v -2.380160 -0.934523 -0.716432
v -2.380160 -0.934523 0.716432
v -2.380160 0.498341 -0.716431
v -2.380160 0.498341 0.716432
v -1.380160 -1.097798 -0.867618
v -1.380160 -1.097798 0.867618
v -1.380160 0.637437 -0.867617
v -1.380161 0.637437 0.867618
v -0.380160 -1.189313 -0.951073
v -0.380160 -1.189313 0.951073
v -0.380160 0.712833 -0.951073
v -0.380161 0.712833 0.951074
v 0.619840 -1.140988 -0.953121
v 0.619840 -1.140988 0.953121
v 0.619840 0.765253 -0.953120
v 0.619839 0.765253 0.953121
v 1.619840 -0.827427 -0.790675
v 1.619840 -0.827427 0.790675
v 1.619840 0.753924 -0.790675
v 1.619839 0.753924 0.790676
v 2.619840 -0.334343 -0.509154
v 2.619840 -0.334343 0.509155
v 2.619840 0.683966 -0.509154
v 2.619839 0.683966 0.509155
v 3.327375 0.146259 -0.132471
v 3.327375 0.146259 0.132472
v 3.327375 0.411202 -0.132471
v 3.327375 0.411202 0.132472
v 3.327375 0.146259 -0.132471
v 3.327375 0.146259 0.132472
v 3.327375 0.411202 -0.132471
v 3.327375 0.411202 0.132472
v -0.380160 0.712833 -0.190288
v 0.619840 0.765253 -0.190288
v -0.380160 0.712833 0.170045
v 0.619840 0.765253 0.170045
v -0.552680 0.983268 -0.190288
v 0.240212 1.226515 -0.190288
v -0.552680 0.983268 0.170045
v 0.240212 1.226515 0.170045
v -0.537547 1.704183 -0.190288
v -0.494573 1.879756 -0.190288
v -0.537548 1.704183 0.170045
v -0.494573 1.879756 0.170045
v -5.168612 -0.395075 0.140715
v -5.168612 -0.395075 -0.140716
v -5.168612 -0.113643 0.140715
v -5.168612 -0.113643 -0.140716
v -4.658953 0.349523 0.194222
v -4.658953 0.349523 -0.194223
v -5.293002 0.268459 0.113159
v -5.293002 0.268459 -0.113160
v -5.082321 0.722972 0.133344
v -5.082321 0.722972 -0.133345
v -5.517632 0.667318 0.077690
v -5.517632 0.667318 -0.077690
v -5.704178 1.038682 0.019717
v -5.704178 1.038682 -0.019718
v -5.768548 1.030452 0.011488
v -5.768548 1.030452 -0.011488
v -4.615139 -0.879288 0.185051
v -4.615139 -0.879288 -0.185051
v -5.219247 -0.802053 0.107815
v -5.219247 -0.802053 -0.107816
v -4.971853 -1.190979 0.132512
v -4.971853 -1.190979 -0.132513
v -5.404448 -1.135672 0.077205
v -5.404448 -1.135672 -0.077206
v -5.578078 -1.506812 0.012899
v -5.578078 -1.506812 -0.012899
v -5.620189 -1.501428 0.007515
v -5.620189 -1.501428 -0.007516
v 0.619839 -0.055369 0.953121
v -0.380160 -0.055369 0.951074
v -0.380160 -0.264540 0.951074
v 0.619839 -0.264540 0.953121
v 0.539746 -0.246568 1.094530
v 0.539746 -0.073340 1.094530
v -0.288418 -0.246568 1.092835
v -0.288418 -0.073340 1.092835
v 0.317938 -0.223430 1.408476
v 0.317938 -0.096478 1.408476
v -0.245929 -0.223431 1.345712
v -0.245929 -0.096478 1.345712
v -0.213619 -0.180563 1.758636
v -0.213619 -0.139346 1.758636
v -0.367602 -0.180563 1.795145
v -0.367602 -0.139346 1.795145
v 0.619839 -0.055369 0.953121
v -0.380160 -0.055369 0.951074
v -0.380160 -0.264540 0.951074
v 0.619839 -0.264540 0.953121
v 0.539746 -0.246568 1.094530
v 0.539746 -0.073340 1.094530
v -0.288418 -0.246568 1.092835
v -0.288418 -0.073340 1.092835
v 0.317938 -0.223430 1.408476
v 0.317938 -0.096478 1.408476
v -0.245929 -0.223431 1.345712
v -0.245929 -0.096478 1.345712
v -0.213619 -0.180563 1.758636
v -0.213619 -0.139346 1.758636
v -0.367602 -0.180563 1.795145
v -0.367602 -0.139346 1.795145
vn -0.2262 -0.9741 -0.0000
vn -0.2701 0.9628 -0.0000
vn -0.2022 -0.9793 0.0000
vn -0.2483 -0.0000 0.9687
vn 0.7926 0.6098 0.0000
vn -0.2483 0.0000 -0.9687
vn -0.1495 -0.0000 0.9888
vn -0.2248 0.9744 -0.0000
vn -0.2135 -0.0000 0.9769
vn -0.2135 0.0000 -0.9769
vn -0.0832 -0.0000 0.9965
vn -0.1611 -0.9869 0.0000
vn -0.1378 0.9905 -0.0000
vn -0.1495 0.0000 -0.9888
vn -0.0523 0.9986 0.0000
vn -0.0911 -0.9958 0.0000
vn -0.0752 0.9972 -0.0000
vn -0.0832 0.0000 -0.9965
vn 0.1603 -0.0000 0.9871
vn -0.0020 0.0000 -1.0000
vn -0.0020 -0.0000 1.0000
vn 0.0483 -0.9988 0.0000
vn 0.4422 -0.8969 0.0000
vn 0.2992 -0.9542 0.0000
vn 0.0113 0.9999 -0.0000
vn 0.1603 0.0000 -0.9871
vn 0.3597 0.9331 0.0000
vn 0.0698 0.9976 0.0000
vn 0.2710 0.0000 -0.9626
vn 0.2710 -0.0000 0.9626
vn 0.0000 0.0000 1.0000
vn 0.4699 0.0000 -0.8827
vn 0.4699 0.0000 0.8827
vn 0.5619 -0.8272 0.0000
vn 1.0000 0.0000 0.0000
vn 0.7721 0.6355 0.0000
vn 0.6644 0.7474 0.0000
vn 0.0000 0.0000 -1.0000
vn -0.8431 -0.5378 -0.0000
vn -0.9713 0.2377 -0.0000
vn -0.9998 0.0210 -0.0000
vn -1.0000 0.0000 0.0000
vn -0.1268 -0.0000 -0.9919
vn 0.8526 -0.5225 0.0000
vn -0.1268 0.0000 0.9919
vn -0.1288 0.0157 -0.9916
vn -0.1304 0.0290 -0.9910
vn -0.1304 0.0290 0.9910
vn -0.9509 -0.3095 0.0000
vn -0.1371 0.0852 0.9869
vn 0.6615 0.7499 0.0000
vn -0.1288 0.0157 0.9916
vn -0.8713 -0.4907 0.0000
vn -0.1268 0.9919 0.0000
vn -0.8227 -0.5685 0.0000
vn -0.1371 0.0852 -0.9869
vn 0.4527 0.8917 0.0000
vn -0.1292 -0.0192 -0.9914
vn -0.1345 -0.0632 -0.9889
vn -0.9923 0.1235 0.0000
vn -0.1345 -0.0632 0.9889
vn -0.1394 -0.1054 0.9846
vn 0.6580 -0.7530 0.0000
vn -0.1292 -0.0192 0.9914
vn -0.8743 0.4854 0.0000
vn -0.1268 -0.9919 0.0000
vn -0.8613 0.5081 0.0000
vn -0.1394 -0.1054 -0.9846
vn 0.4620 -0.8869 0.0000
vn -0.0037 -0.9968 0.0802
vn 0.8701 0.0000 0.4928
vn -0.0003 -0.9920 0.1259
vn -0.8395 -0.0000 0.5433
vn -0.0003 0.9920 0.1259
vn -0.0038 0.9946 0.1036
vn -0.9862 0.0000 0.1657
vn -0.0037 0.9968 0.0802
vn 0.8167 0.0000 0.5770
vn 0.2307 0.0000 0.9730
vn 0.5501 0.0000 0.8351
vn -0.0038 -0.9946 0.1036
vn -0.9653 0.0000 -0.2613
usemtl Material
s off
f 1//1 2//1 3//1 4//1
f 5//2 8//2 7//2 6//2
f 2//3 1//3 9//3 10//3
f 2//4 6//4 7//4 3//4
f 7//5 8//5 58//5 57//5
f 5//6 1//6 4//6 8//6
f 12//7 10//7 14//7 16//7
f 5//8 6//8 12//8 11//8
f 6//9 2//9 10//9 12//9
f 1//10 5//10 11//10 9//10
f 16//11 14//11 18//11 83//11 82//11 20//11
f 10//12 9//12 13//12 14//12
f 11//13 12//13 16//13 15//13
f 9//14 11//14 15//14 13//14
f 19//15 41//15 42//15 23//15
f 14//16 13//16 17//16 18//16
f 15//17 16//17 20//17 43//17 41//17 19//17
f 13//18 15//18 19//18 17//18
f 24//19 81//19 84//19 22//19 26//19 28//19
f 17//20 19//20 23//20 21//20
f 20//21 82//21 81//21 24//21
f 18//22 17//22 21//22 22//22
f 26//23 25//23 29//23 30//23
f 22//24 21//24 25//24 26//24
f 23//25 42//25 44//25 24//25 28//25 27//25
f 21//26 23//26 27//26 25//26
f 31//27 32//27 36//27 35//27
f 27//28 28//28 32//28 31//28
f 25//29 27//29 31//29 29//29
f 28//30 26//30 30//30 32//30
f 36//31 34//31 38//31 40//31
f 29//32 31//32 35//32 33//32
f 32//33 30//33 34//33 36//33
f 30//34 29//34 33//34 34//34
f 37//35 39//35 40//35 38//35
f 34//31 33//31 37//31 38//31
f 35//31 36//31 40//31 39//31
f 33//31 35//31 39//31 37//31
f 44//36 42//36 46//36 48//36
f 44//15 43//15 20//15 24//15
f 48//37 46//37 50//37 52//37
f 42//38 41//38 45//38 46//38
f 43//31 44//31 48//31 47//31
f 41//39 43//39 47//39 45//39
f 50//40 49//40 51//40 52//40
f 46//38 45//38 49//38 50//38
f 47//31 48//31 52//31 51//31
f 45//41 47//41 51//41 49//41
f 53//42 55//42 56//42 54//42
f 8//43 4//43 54//43 56//43
f 4//44 3//44 69//44 70//44
f 3//45 7//45 55//45 53//45
f 58//46 60//46 64//46 62//46
f 8//47 56//47 60//47 58//47
f 55//48 7//48 57//48 59//48
f 56//49 55//49 59//49 60//49
f 63//50 61//50 65//50 67//50
f 57//51 58//51 62//51 61//51
f 59//52 57//52 61//52 63//52
f 60//53 59//53 63//53 64//53
f 65//54 66//54 68//54 67//54
f 64//55 63//55 67//55 68//55
f 62//56 64//56 68//56 66//56
f 61//57 62//57 66//57 65//57
f 72//58 70//58 74//58 76//58
f 54//59 4//59 70//59 72//59
f 53//60 54//60 72//60 71//60
f 3//61 53//61 71//61 69//61
f 73//62 75//62 79//62 77//62
f 70//63 69//63 73//63 74//63
f 69//64 71//64 75//64 73//64
f 71//65 72//65 76//65 75//65
f 78//66 77//66 79//66 80//66
f 75//67 76//67 80//67 79//67
f 76//68 74//68 78//68 80//68
f 74//69 73//69 77//69 78//69
f 87//70 85//70 89//70 91//70
f 84//71 81//71 86//71 85//71
f 84//21 83//21 18//21 22//21
f 83//72 84//72 85//72 87//72
f 82//73 83//73 87//73 88//73
f 81//74 82//74 88//74 86//74
f 90//75 92//75 96//75 94//75
f 88//76 87//76 91//76 92//76
f 86//77 88//77 92//77 90//77
f 85//78 86//78 90//78 89//78
f 94//79 96//79 95//79 93//79
f 89//80 90//80 94//80 93//80
f 91//81 89//81 93//81 95//81
f 92//82 91//82 95//82 96//82
f 103//70 101//70 105//70 107//70
f 100//71 97//71 102//71 101//71
f 99//72 100//72 101//72 103//72
f 98//73 99//73 103//73 104//73
f 97//74 98//74 104//74 102//74
f 106//75 108//75 112//75 110//75
f 104//76 103//76 107//76 108//76
f 102//77 104//77 108//77 106//77
f 101//78 102//78 106//78 105//78
f 110//79 112//79 111//79 109//79
f 105//80 106//80 110//80 109//80
f 107//81 105//81 109//81 111//81
f 108//82 107//82 111//82 112//82
